<svg width="24" height="24" viewBox="0 0 24 24" fill="none" xmlns="http://www.w3.org/2000/svg">
<path d="M20.0001 13.171V9C20.0001 6.87827 19.1572 4.84344 17.6569 3.34315C16.1566 1.84285 14.1218 1 12.0001 1C9.87835 1 7.84352 1.84285 6.34323 3.34315C4.84294 4.84344 4.00008 6.87827 4.00008 9V13.169C3.58166 13.3131 3.20262 13.5527 2.89308 13.869C2.60789 14.1454 2.38171 14.4767 2.22822 14.843C2.07473 15.2093 1.99712 15.6029 2.00008 16C2.00008 16.7956 2.31615 17.5587 2.87876 18.1213C3.44137 18.6839 4.20443 19 5.00008 19H7.10008C7.3296 20.1303 7.94281 21.1465 8.83582 21.8764C9.72884 22.6063 10.8467 23.005 12.0001 23.005C13.1534 23.005 14.2713 22.6063 15.1643 21.8764C16.0574 21.1465 16.6706 20.1303 16.9001 19H19.0001C19.7945 18.9961 20.5553 18.6787 21.117 18.117C21.6788 17.5552 21.9961 16.7944 22.0001 16C21.9993 15.3797 21.8067 14.7749 21.4486 14.2684C21.0906 13.7619 20.5846 13.3786 20.0001 13.171ZM12.0001 21C11.3798 20.9992 10.775 20.8066 10.2685 20.4486C9.76198 20.0905 9.37866 19.5845 9.17108 19H14.8291C14.6215 19.5845 14.2382 20.0905 13.7317 20.4486C13.2252 20.8066 12.6204 20.9992 12.0001 21ZM19.6931 16.713C19.6028 16.8049 19.4949 16.8778 19.3758 16.9271C19.2567 16.9764 19.129 17.0012 19.0001 17H5.00008C4.73486 17 4.48051 16.8946 4.29297 16.7071C4.10544 16.5196 4.00008 16.2652 4.00008 16C3.99982 15.8665 4.02693 15.7343 4.07973 15.6117C4.13253 15.4891 4.20991 15.3786 4.30708 15.287C4.39738 15.1951 4.50529 15.1222 4.62436 15.0729C4.74343 15.0236 4.87121 14.9988 5.00008 15C5.2653 15 5.51965 14.8946 5.70719 14.7071C5.89472 14.5196 6.00008 14.2652 6.00008 14V9C6.00008 8.21207 6.15528 7.43185 6.4568 6.7039C6.75833 5.97595 7.20029 5.31451 7.75744 4.75736C8.31459 4.20021 8.97603 3.75825 9.70398 3.45672C10.4319 3.15519 11.2122 3 12.0001 3C12.788 3 13.5682 3.15519 14.2962 3.45672C15.0241 3.75825 15.6856 4.20021 16.2427 4.75736C16.7999 5.31451 17.2418 5.97595 17.5434 6.7039C17.8449 7.43185 18.0001 8.21207 18.0001 9V14C18.0001 14.2652 18.1054 14.5196 18.293 14.7071C18.4805 14.8946 18.7349 15 19.0001 15C19.2653 15 19.5197 15.1054 19.7072 15.2929C19.8947 15.4804 20.0001 15.7348 20.0001 16C20.0003 16.1335 19.9732 16.2657 19.9204 16.3883C19.8676 16.5109 19.7903 16.6214 19.6931 16.713Z" fill="black"/>
<circle cx="18.5" cy="6.5" r="4.5" fill="#F15C43" stroke="white" stroke-width="2"/>
</svg>
