<svg width="24" height="24" viewBox="0 0 24 24" fill="none" xmlns="http://www.w3.org/2000/svg">
<g clip-path="url(#clip0_102_265)">
<path d="M24 7.78125C24 7.67189 23.9723 7.55981 23.9257 7.46681L21.5019 2.61914C21.1423 1.89994 20.4194 1.45312 19.6153 1.45312C16.1798 1.45312 7.43991 1.45312 4.38473 1.45312C3.58064 1.45312 2.85769 1.89994 2.49802 2.61914L0.0742031 7.46681C0.0254531 7.56436 0 7.67634 0 7.78125C0 7.78613 0.000609375 7.80966 0.00084375 7.81453C0.0114844 8.94863 0.561234 9.95602 1.40625 10.5918V20.4375C1.40625 21.6006 2.35252 22.5469 3.51562 22.5469H20.4844C21.6475 22.5469 22.5938 21.6006 22.5938 20.4375V10.5918C23.4624 9.93825 24 8.90794 24 7.78125ZM20.4844 9.89062C19.5677 9.89062 18.7862 9.30272 18.4959 8.48438H22.4728C22.1826 9.30272 21.401 9.89062 20.4844 9.89062ZM1.52719 8.48438H5.50402C5.21377 9.30272 4.43222 9.89062 3.51558 9.89062C2.59894 9.89062 1.81744 9.30272 1.52719 8.48438ZM20.2442 3.24806L22.1592 7.07812H18.174L17.1193 2.85938H19.6153C19.8833 2.85938 20.1243 3.0083 20.2442 3.24806ZM16.7245 7.07812H12.7031V2.85938H15.6698L16.7245 7.07812ZM16.8478 8.48438C16.5576 9.30272 15.776 9.89062 14.8594 9.89062C13.9412 9.89062 13.1352 9.29437 12.8317 8.48438H16.8478ZM11.2969 2.85938V7.07812H7.22869L8.28337 2.85938H11.2969ZM11.1683 8.48438C10.8648 9.29437 10.0588 9.89062 9.14062 9.89062C8.22398 9.89062 7.44244 9.30272 7.15219 8.48438H11.1683ZM3.75586 3.24806C3.87572 3.0083 4.1167 2.85938 4.38473 2.85938H6.83381L5.77913 7.07812H1.84083L3.75586 3.24806ZM21.1875 20.4375C21.1875 20.8252 20.8721 21.1406 20.4844 21.1406H3.51562C3.12792 21.1406 2.8125 20.8252 2.8125 20.4375V11.2261C3.03975 11.2725 3.27487 11.2969 3.51562 11.2969C4.66444 11.2969 5.68617 10.7429 6.32812 9.88819C6.97008 10.7429 7.99181 11.2969 9.14062 11.2969C10.0795 11.2969 10.9687 10.9332 11.6443 10.2728C11.7742 10.1459 11.8928 10.011 12 9.86939C12.1072 10.011 12.2258 10.1459 12.3557 10.2728C13.0313 10.9332 13.9205 11.2969 14.8594 11.2969C16.0082 11.2969 17.03 10.7429 17.6719 9.88819C18.3138 10.7429 19.3356 11.2969 20.4844 11.2969C20.7251 11.2969 20.9603 11.2725 21.1875 11.2261V20.4375Z" fill="black"/>
<path d="M19.0312 15.5156H16.9219C16.5336 15.5156 16.2188 15.8304 16.2188 16.2188C16.2188 16.6071 16.5336 16.9219 16.9219 16.9219H18.2072C17.9169 17.7402 17.1354 18.3281 16.2188 18.3281C15.0556 18.3281 14.1094 17.3819 14.1094 16.2188C14.1094 15.0556 15.0556 14.1094 16.2188 14.1094C16.7822 14.1094 17.3119 14.3288 17.7103 14.7272C17.9849 15.0018 18.4301 15.0018 18.7047 14.7272C18.9793 14.4526 18.9792 14.0075 18.7047 13.7329C18.0406 13.0688 17.1578 12.7031 16.2188 12.7031C14.2802 12.7031 12.7031 14.2802 12.7031 16.2188C12.7031 18.1573 14.2802 19.7344 16.2188 19.7344C18.1573 19.7344 19.7344 18.1573 19.7344 16.2188C19.7344 15.8304 19.4196 15.5156 19.0312 15.5156Z" fill="black"/>
</g>
<defs>
<clipPath id="clip0_102_265">
<rect width="24" height="24" fill="white"/>
</clipPath>
</defs>
</svg>
