<svg width="94" height="32" viewBox="0 0 94 32" fill="none" xmlns="http://www.w3.org/2000/svg">
<g clip-path="url(#clip0_11_22)">
<path fill-rule="evenodd" clip-rule="evenodd" d="M7.99853 0C3.58118 0 0 3.58177 0 7.99987C0 12.4185 3.58118 15.9997 7.99853 15.9997H8.00173H16.0003V7.99987C16.0003 3.58177 12.4191 0 8.00173 0H7.99853ZM25.3324 2.66716C21.6506 2.66716 18.6669 5.65179 18.6669 9.33371V15.9997H25.3324H25.3346C29.0164 15.9997 32 13.0151 32 9.33371C32 5.65179 29.0164 2.66716 25.3346 2.66716H25.3324ZM18.6669 18.6663V23.9991V24.0006C18.6669 26.9453 21.0535 29.3323 23.9982 29.3323C26.9419 29.3323 29.329 26.9453 29.329 24.0006V23.9991C29.329 21.0533 26.9419 18.6663 23.9982 18.6663H18.6669ZM10.8623 18.6663C6.3363 18.6663 2.66618 22.3365 2.66618 26.8639V32H8.38413C12.5981 31.9547 15.9997 28.5242 15.9997 24.2984V18.6663H10.8623ZM5.33236 26.8639C5.33236 23.8142 7.81319 21.333 10.8623 21.333H13.3341V24.2984C13.3341 27.0748 11.0764 29.3323 8.30052 29.3323H5.33236V26.8639Z" fill="url(#paint0_linear_11_22)"/>
<path fill-rule="evenodd" clip-rule="evenodd" d="M41.213 21.1112H49.542V24.0799H36.8652V21.7036L45.1826 12.0753H37.1167V9.1062H49.3881V11.4803L41.213 21.1112Z" fill="#233638"/>
<path fill-rule="evenodd" clip-rule="evenodd" d="M52.6705 24.0799H55.9529V9.10618H52.6705V24.0799ZM56.6102 3.93012C56.6102 5.24371 55.5944 6.21479 54.2957 6.21479C52.9837 6.21479 52.0137 5.24371 52.0137 3.93012C52.0137 2.63357 52.9837 1.61829 54.2957 1.61829C55.5944 1.61829 56.6102 2.63357 56.6102 3.93012Z" fill="#233638"/>
<path fill-rule="evenodd" clip-rule="evenodd" d="M62.4705 16.5919C62.4705 19.2201 64.175 21.3929 66.9871 21.3929C69.6772 21.3929 71.5063 19.3272 71.5063 16.5919C71.5063 13.8571 69.6772 11.794 66.9871 11.794C64.175 11.794 62.4705 13.9668 62.4705 16.5919ZM71.3024 10.9183V1.5708H74.5698V24.0803H71.3024V22.2835C70.2545 23.6126 68.739 24.4708 66.5961 24.4708C62.4082 24.4708 59.1104 21.174 59.1104 16.5919C59.1104 12.013 62.4082 8.71565 66.5961 8.71565C68.739 8.71565 70.2545 9.58925 71.3024 10.9183Z" fill="#233638"/>
<path fill-rule="evenodd" clip-rule="evenodd" d="M77.9692 30.426L83.3295 21.0023L76.6875 9.10645H80.3604L85.1731 17.7017L89.817 9.10645H93.4105L81.5951 30.426H77.9692Z" fill="#233638"/>
</g>
<defs>
<linearGradient id="paint0_linear_11_22" x1="28.905" y1="0.867433" x2="1.1814" y2="29.2718" gradientUnits="userSpaceOnUse">
<stop stop-color="#82EFAC"/>
<stop offset="1" stop-color="#23CCF4"/>
</linearGradient>
<clipPath id="clip0_11_22">
<rect width="93.9355" height="32" fill="white"/>
</clipPath>
</defs>
</svg>
