<svg width="41" height="40" viewBox="0 0 41 40" fill="none" xmlns="http://www.w3.org/2000/svg">
<g clip-path="url(#clip0_0_9)">
<path fill-rule="evenodd" clip-rule="evenodd" d="M9.99984 0C4.47722 0 0 4.47722 0 9.99984C0 15.5231 4.47722 19.9997 9.99984 19.9997H10.0038H20.0036V9.99984C20.0036 4.47722 15.5264 0 10.0038 0H9.99984ZM31.6708 3.33394C27.0678 3.33394 23.3376 7.06474 23.3376 11.6671V19.9997H31.6708H31.6734C36.2766 19.9997 40.0066 16.2689 40.0066 11.6671C40.0066 7.06474 36.2766 3.33394 31.6734 3.33394H31.6708ZM23.3376 23.333V29.9988V30.0008C23.3376 33.6816 26.3214 36.6654 30.0028 36.6654C33.683 36.6654 36.6674 33.6816 36.6674 30.0008V29.9988C36.6674 26.3166 33.683 23.333 30.0028 23.333H23.3376ZM13.5801 23.333C7.9217 23.333 3.33328 27.9206 3.33328 33.5798V40H10.4819C15.7502 39.9434 20.003 35.6552 20.003 30.373V23.333H13.5801ZM6.66656 33.5798C6.66656 29.7678 9.76812 26.6662 13.5801 26.6662H16.6704V30.373C16.6704 33.8434 13.8478 36.6654 10.3774 36.6654H6.66656V33.5798Z" fill="url(#paint0_linear_0_9)"/>
</g>
<defs>
<linearGradient id="paint0_linear_0_9" x1="36.1372" y1="1.08429" x2="1.4829" y2="36.5956" gradientUnits="userSpaceOnUse">
<stop stop-color="#82EFAC"/>
<stop offset="1" stop-color="#23CCF4"/>
</linearGradient>
<clipPath id="clip0_0_9">
<rect width="40.2" height="40" fill="white"/>
</clipPath>
</defs>
</svg>
