<svg width="40" height="40" viewBox="0 0 40 40" fill="none" xmlns="http://www.w3.org/2000/svg">
<rect x="4" y="4" width="32" height="32" rx="4" fill="#4FAFE7"/>
<path d="M12.587 28.9271C12.2092 29.0782 11.8502 29.045 11.5101 28.8273C11.17 28.6104 11 28.2942 11 27.8785V23.6558C11 23.3913 11.0756 23.1552 11.2267 22.9473C11.3779 22.7395 11.5857 22.6073 11.8502 22.5506L20.0688 20.5101L11.8502 18.4696C11.5857 18.4129 11.3779 18.2807 11.2267 18.0729C11.0756 17.865 11 17.6289 11 17.3644V13.1417C11 12.726 11.17 12.4094 11.5101 12.1917C11.8502 11.9748 12.2092 11.942 12.587 12.0931L30.0445 19.4615C30.5168 19.6693 30.753 20.0189 30.753 20.5101C30.753 21.0013 30.5168 21.3509 30.0445 21.5587L12.587 28.9271Z" fill="white"/>
</svg>
